HIERARCHY
ROOT Hips
{
	OFFSET 0.000000 0.000000 0.000000
	CHANNELS 6 Xposition Yposition Zposition Xrotation Yrotation Zrotation
	JOINT C_ctrl
	{
		OFFSET 0.000000 35.040482 -0.000011
		CHANNELS 3 Xrotation Yrotation Zrotation
		JOINT Bip01
		{
			OFFSET -41.537640 41.789009 -0.000007
			CHANNELS 3 Xrotation Yrotation Zrotation
			JOINT Bip01_Pelvis
			{
				OFFSET -2.462887 0.000000 0.000000
				CHANNELS 3 Xrotation Yrotation Zrotation
				JOINT BN_Tail_01
				{
					OFFSET -11.399368 7.351341 -0.000013
					CHANNELS 3 Xrotation Yrotation Zrotation
					JOINT BN_Tail_02
					{
						OFFSET -11.365196 -0.343025 0.000012
						CHANNELS 3 Xrotation Yrotation Zrotation
						JOINT BN_Tail_03
						{
							OFFSET -15.076256 -0.454979 0.000017
							CHANNELS 3 Xrotation Yrotation Zrotation
							JOINT BN_Tail_04
							{
								OFFSET -17.395691 -0.525002 0.000016
								CHANNELS 3 Xrotation Yrotation Zrotation
								JOINT BN_Tail_05
								{
									OFFSET -16.699837 -0.504005 0.000016
									CHANNELS 3 Xrotation Yrotation Zrotation
									End Site
									{
										OFFSET 0.503998 -16.699829 0.000067
									}
								}
							}
						}
					}
				}
				JOINT Bip01_Spine
				{
					OFFSET 8.297798 5.916809 -0.000020
					CHANNELS 3 Xrotation Yrotation Zrotation
					JOINT Bip01_R_Thigh
					{
						OFFSET -8.297779 -5.916794 10.541781
						CHANNELS 3 Xrotation Yrotation Zrotation
						JOINT Bip01_R_Calf
						{
							OFFSET 5.631542 -22.906792 0.862690
							CHANNELS 3 Xrotation Yrotation Zrotation
							JOINT Bip01_R_HorseLink
							{
								OFFSET -16.984341 -19.231926 -3.555767
								CHANNELS 3 Xrotation Yrotation Zrotation
								JOINT Bip01_R_Foot
								{
									OFFSET 4.290367 -24.783146 0.578056
									CHANNELS 3 Xrotation Yrotation Zrotation
									JOINT Bip01_R_Toe0
									{
										OFFSET 3.561211 -5.815116 0.760802
										CHANNELS 3 Xrotation Yrotation Zrotation
										JOINT Bip01_R_Toe0Nub
										{
											OFFSET 16.135469 0.002017 1.534789
											CHANNELS 3 Xrotation Yrotation Zrotation
											End Site
											{
												OFFSET -0.000002 16.208284 -0.000056
											}
										}
									}
								}
							}
						}
					}
					JOINT Bip01_L_Thigh
					{
						OFFSET -8.297813 -5.916832 -10.541739
						CHANNELS 3 Xrotation Yrotation Zrotation
						JOINT Bip01_L_Calf
						{
							OFFSET 5.631535 -22.906792 -0.862625
							CHANNELS 3 Xrotation Yrotation Zrotation
							JOINT Bip01_L_HorseLink
							{
								OFFSET -16.984318 -19.231949 3.555875
								CHANNELS 3 Xrotation Yrotation Zrotation
								JOINT Bip01_L_Foot
								{
									OFFSET 4.290367 -24.783169 -0.577965
									CHANNELS 3 Xrotation Yrotation Zrotation
									JOINT Bip01_L_Toe0
									{
										OFFSET 3.561245 -5.815111 -0.760799
										CHANNELS 3 Xrotation Yrotation Zrotation
										JOINT Bip01_L_Toe0Nub
										{
											OFFSET 6.574303 -0.000005 -1.538561
											CHANNELS 3 Xrotation Yrotation Zrotation
											End Site
											{
												OFFSET 0.000004 -6.751935 0.000023
											}
										}
									}
								}
							}
						}
					}
					JOINT Bip01_Spine1
					{
						OFFSET 20.556803 -4.626213 -0.000025
						CHANNELS 3 Xrotation Yrotation Zrotation
						JOINT Saddle
						{
							OFFSET 17.608810 18.174690 -0.000143
							CHANNELS 3 Xrotation Yrotation Zrotation
							End Site
							{
								OFFSET -0.000063 -0.000061 -22.448387
							}
						}
						JOINT BN_center
						{
							OFFSET 10.743275 -13.417107 -0.172041
							CHANNELS 3 Xrotation Yrotation Zrotation
							End Site
							{
								OFFSET 22.434088 0.553078 -0.579614
							}
						}
						JOINT Bip01_Spine2
						{
							OFFSET 24.765072 -2.054115 -0.000032
							CHANNELS 3 Xrotation Yrotation Zrotation
							JOINT Handle
							{
								OFFSET 63.735676 16.430748 -16.052464
								CHANNELS 3 Xrotation Yrotation Zrotation
								JOINT IK_Chain01
								{
									OFFSET -4.713058 -6.020439 0.185448
									CHANNELS 3 Xrotation Yrotation Zrotation
									End Site
									{
										OFFSET -0.000023 -0.000023 -7.648071
									}
								}
							}
							JOINT BN_hair04_01
							{
								OFFSET 1.987491 16.256981 -2.049672
								CHANNELS 3 Xrotation Yrotation Zrotation
								JOINT BN_hair04_02
								{
									OFFSET -1.318762 -3.831451 -6.174704
									CHANNELS 3 Xrotation Yrotation Zrotation
									JOINT BN_hair04_03
									{
										OFFSET -0.827490 -5.886627 -5.656666
										CHANNELS 3 Xrotation Yrotation Zrotation
										End Site
										{
											OFFSET -2.658262 5.010620 -5.929780
										}
									}
								}
							}
							JOINT Bip01_Neck
							{
								OFFSET 25.574577 9.433014 -0.000084
								CHANNELS 3 Xrotation Yrotation Zrotation
								JOINT Bip01_R_Clavicle
								{
									OFFSET -16.535652 0.011192 6.705692
									CHANNELS 3 Xrotation Yrotation Zrotation
									JOINT Bip01_R_UpperArm
									{
										OFFSET 20.272621 -12.959984 2.510816
										CHANNELS 3 Xrotation Yrotation Zrotation
										JOINT Bip01_R_Forearm
										{
											OFFSET -13.633509 -15.503704 -0.653585
											CHANNELS 3 Xrotation Yrotation Zrotation
											JOINT Bip01_R_Hand
											{
												OFFSET 2.580030 -27.804676 -1.136415
												CHANNELS 3 Xrotation Yrotation Zrotation
												JOINT Bip01_R_Finger0
												{
													OFFSET -0.281744 -19.659061 -0.398649
													CHANNELS 3 Xrotation Yrotation Zrotation
													JOINT Bip01_Xtra02
													{
														OFFSET 4.152210 -5.712314 0.433813
														CHANNELS 3 Xrotation Yrotation Zrotation
														JOINT Bip01_Xtra02Nub
														{
															OFFSET 15.457960 0.041654 0.507982
															CHANNELS 3 Xrotation Yrotation Zrotation
															End Site
															{
																OFFSET -15.421730 -0.157725 -1.163459
															}
														}
													}
													JOINT Bip01_R_Finger0Nub
													{
														OFFSET 8.362326 -9.718440 -0.143142
														CHANNELS 3 Xrotation Yrotation Zrotation
														End Site
														{
															OFFSET -1.213036 -0.198171 9.872291
														}
													}
												}
											}
										}
									}
								}
								JOINT Bip01_L_Clavicle
								{
									OFFSET -16.535673 0.011162 -6.705583
									CHANNELS 3 Xrotation Yrotation Zrotation
									JOINT Bip01_L_UpperArm
									{
										OFFSET 20.272615 -12.959999 -2.510836
										CHANNELS 3 Xrotation Yrotation Zrotation
										JOINT Bip01_L_Forearm
										{
											OFFSET -13.633495 -15.503681 0.653678
											CHANNELS 3 Xrotation Yrotation Zrotation
											JOINT Bip01_L_Hand
											{
												OFFSET 2.579988 -27.804686 1.136487
												CHANNELS 3 Xrotation Yrotation Zrotation
												JOINT Bip01_L_Finger0
												{
													OFFSET -0.281765 -19.659058 0.398696
													CHANNELS 3 Xrotation Yrotation Zrotation
													JOINT Bip01_Xtra01
													{
														OFFSET 4.083549 -5.738758 -0.666714
														CHANNELS 3 Xrotation Yrotation Zrotation
														JOINT Bip01_Xtra01Nub
														{
															OFFSET 6.758158 -0.395525 -0.023239
															CHANNELS 3 Xrotation Yrotation Zrotation
															End Site
															{
																OFFSET 6.764923 -0.254147 -0.029908
															}
														}
													}
													JOINT Bip01_L_Finger0Nub
													{
														OFFSET -0.012636 -9.629153 0.045740
														CHANNELS 3 Xrotation Yrotation Zrotation
														End Site
														{
															OFFSET 0.988407 0.004791 8.293357
														}
													}
												}
											}
										}
									}
								}
								JOINT BN_hair03_01
								{
									OFFSET -5.894140 16.270622 -2.498433
									CHANNELS 3 Xrotation Yrotation Zrotation
									JOINT BN_hair03_02
									{
										OFFSET -0.189278 -7.800507 -6.219162
										CHANNELS 3 Xrotation Yrotation Zrotation
										JOINT BN_hair03_03
										{
											OFFSET 0.612345 -10.844475 -3.370718
											CHANNELS 3 Xrotation Yrotation Zrotation
											End Site
											{
												OFFSET -2.273296 2.862007 -10.769416
											}
										}
									}
								}
								JOINT Bip01_Neck1
								{
									OFFSET 9.383755 11.908699 -0.000007
									CHANNELS 3 Xrotation Yrotation Zrotation
									JOINT BN_hair02_01
									{
										OFFSET 9.126320 18.808022 -1.420810
										CHANNELS 3 Xrotation Yrotation Zrotation
										JOINT BN_hair02_02
										{
											OFFSET 0.393478 -5.181091 -5.248574
											CHANNELS 3 Xrotation Yrotation Zrotation
											JOINT BN_hair02_03
											{
												OFFSET 0.762280 -8.167076 -0.230047
												CHANNELS 3 Xrotation Yrotation Zrotation
												End Site
												{
													OFFSET -0.025837 -1.251419 -8.109770
												}
											}
										}
									}
									JOINT Bip01_Head
									{
										OFFSET 14.266129 10.475403 -0.000008
										CHANNELS 3 Xrotation Yrotation Zrotation
										JOINT BN_Reins_01
										{
											OFFSET 18.547455 -15.740112 -0.000035
											CHANNELS 3 Xrotation Yrotation Zrotation
											JOINT BN_Reins_02
											{
												OFFSET -5.372810 -5.884506 0.000028
												CHANNELS 3 Xrotation Yrotation Zrotation
												JOINT BN_Reins_03
												{
													OFFSET -6.395866 -15.947449 0.000070
													CHANNELS 3 Xrotation Yrotation Zrotation
													JOINT BN_Halter_R_01
													{
														OFFSET -1.234055 -3.096100 7.096737
														CHANNELS 3 Xrotation Yrotation Zrotation
														End Site
														{
															OFFSET 10.514435 -4.176861 -0.000004
														}
													}
													JOINT BN_Halter_L_01
													{
														OFFSET -1.234062 -3.096146 -7.096726
														CHANNELS 3 Xrotation Yrotation Zrotation
														End Site
														{
															OFFSET -10.514435 4.176865 -0.000000
														}
													}
													JOINT BN_Reins_04
													{
														OFFSET -6.737644 -16.971684 0.000074
														CHANNELS 3 Xrotation Yrotation Zrotation
														JOINT BN_Halter_R_02
														{
															OFFSET -4.688869 -11.781956 7.096771
															CHANNELS 3 Xrotation Yrotation Zrotation
															End Site
															{
																OFFSET 14.669624 -5.827511 -0.000006
															}
														}
														JOINT BN_Halter_L_02
														{
															OFFSET -4.688892 -11.782017 -7.096693
															CHANNELS 3 Xrotation Yrotation Zrotation
															End Site
															{
																OFFSET -14.669624 5.827507 -0.000002
															}
														}
														JOINT BN_Reins_05
														{
															OFFSET -6.822578 -16.971161 0.000074
															CHANNELS 3 Xrotation Yrotation Zrotation
															JOINT BN_Reins_06
															{
																OFFSET -6.140354 -15.095148 0.000066
																CHANNELS 3 Xrotation Yrotation Zrotation
																End Site
																{
																	OFFSET -15.095150 6.140352 -0.000002
																}
															}
														}
													}
												}
											}
										}
										JOINT BN_hair01_01
										{
											OFFSET 8.957344 8.870956 0.112121
											CHANNELS 3 Xrotation Yrotation Zrotation
											JOINT BN_hair01_02
											{
												OFFSET 6.002075 -2.962952 -3.121264
												CHANNELS 3 Xrotation Yrotation Zrotation
												End Site
												{
													OFFSET 5.917702 3.813591 -2.232396
												}
											}
										}
										JOINT BN_Eyebrow_R
										{
											OFFSET 11.795959 -0.430496 4.449781
											CHANNELS 3 Xrotation Yrotation Zrotation
											JOINT Bip01_Xtra06Nub
											{
												OFFSET 2.936661 -0.262573 3.246701
												CHANNELS 3 Xrotation Yrotation Zrotation
												End Site
												{
													OFFSET 2.768745 0.208199 3.394807
												}
											}
										}
										JOINT BN_Eyebrow_L
										{
											OFFSET 11.586395 -0.445618 -4.441728
											CHANNELS 3 Xrotation Yrotation Zrotation
											JOINT Bip01_Xtra05Nub
											{
												OFFSET 3.244698 -0.349442 -4.416700
												CHANNELS 3 Xrotation Yrotation Zrotation
												End Site
												{
													OFFSET 3.053162 0.072495 -4.564033
												}
											}
										}
										JOINT Bip01_R_Ear_01
										{
											OFFSET 7.142960 7.567184 4.311657
											CHANNELS 3 Xrotation Yrotation Zrotation
											JOINT Bip01_Xtra04Nub
											{
												OFFSET 9.464531 9.264214 1.682953
												CHANNELS 3 Xrotation Yrotation Zrotation
												End Site
												{
													OFFSET 8.448181 10.159340 1.910823
												}
											}
										}
										JOINT Bip01__L_Ear_01
										{
											OFFSET 7.214943 7.717056 -4.356771
											CHANNELS 3 Xrotation Yrotation Zrotation
											JOINT Bip01_Xtra03Nub
											{
												OFFSET 9.230225 8.944366 -2.322746
												CHANNELS 3 Xrotation Yrotation Zrotation
												End Site
												{
													OFFSET 8.170288 9.841324 -2.643566
												}
											}
										}
										JOINT Bip01_Jaw
										{
											OFFSET 9.196068 -4.110695 -0.000013
											CHANNELS 3 Xrotation Yrotation Zrotation
											JOINT Bip01_Ponytail1Nub
											{
												OFFSET 10.976463 -21.082108 -0.000053
												CHANNELS 3 Xrotation Yrotation Zrotation
												End Site
												{
													OFFSET 11.247093 -20.938980 0.000113
												}
											}
										}
										JOINT Bip01_HeadNub
										{
											OFFSET 29.954575 -18.249489 -0.000063
											CHANNELS 3 Xrotation Yrotation Zrotation
											End Site
											{
												OFFSET -9.198448 -13.366348 0.000168
											}
										}
									}
								}
							}
						}
					}
				}
			}
		}
	}
}
MOTION
Frames: 4
Frame Time: 0.033333
0.000000 0.000000 0.000000 0.000008 0.000000 -0.000000 -0.000000 0.000000 -0.000000 -0.030585 -1.999750 -0.876418 0.000001 0.000002 -0.000002 -2.923586 2.057125 37.865035 0.144412 -0.952193 22.678484 0.328572 -0.921972 17.662635 -0.164169 -1.486300 7.631983 0.022971 -1.596566 -0.246897 0.191215 1.111757 5.951787 -0.438265 10.108260 1.064767 0.994042 0.010710 -5.037400 1.685463 -0.033436 -8.547050 -0.269961 -9.370545 7.707282 -0.000085 -0.000041 0.000141 -0.005326 0.004382 -0.000048 -0.865814 -8.758819 -5.739349 -0.159913 -0.007635 -0.810855 -2.543864 0.147974 -12.933368 0.167771 9.842236 14.564919 -0.000068 0.000035 -0.000008 0.008765 -0.000456 0.038596 0.031073 0.601388 -3.264819 0.917523 -0.020778 6.784392 1.003364 -0.167866 -0.003086 0.048130 0.969312 -4.147690 0.000078 -0.000112 -0.000055 -0.000052 -0.014928 0.015042 2.187213 0.426167 -0.744399 0.876330 0.069224 -0.250762 3.285932 0.457728 -0.978209 1.569462 -0.647809 -3.937198 -0.172264 0.986519 4.888495 -4.839927 -4.670267 8.532464 0.017866 0.223096 -5.458992 7.205955 2.592946 1.961310 -4.306971 4.318160 -2.306024 0.000015 0.000424 -0.000046 -0.781879 0.140346 -0.478788 -0.804181 0.123493 -0.482651 -3.706783 0.069376 4.845932 5.354047 -0.095361 7.127677 -0.009823 -0.151526 -3.702839 -7.198486 2.220158 1.098844 2.568089 -5.572011 -1.497996 -0.000129 -0.000232 -0.000014 0.028278 0.072123 2.451926 -0.000915 0.100591 2.451938 3.477940 0.382209 -0.617373 -0.590265 -0.070474 0.125599 -1.017588 -0.159013 0.143334 -2.171039 1.241880 -5.173153 5.641656 0.553614 -0.134486 0.032297 -0.012193 0.044711 -1.908375 -0.212583 0.349860 -1.114778 -1.179796 -4.471481 -0.000001 0.000303 30.147444 -0.083702 -0.090525 -71.289635 -0.000042 -0.000051 -22.118043 0.000020 -0.000008 -0.026805 0.000021 0.000058 0.012718 -0.000103 -0.000107 -34.828415 0.000025 -0.000010 0.015165 0.000022 -0.000020 0.012721 -0.000053 -0.000083 -24.346694 0.000033 0.000035 -0.000050 2.119613 2.659134 2.074685 0.526208 -0.045410 1.013793 -12.812591 -1.803906 -16.138888 0.024196 -0.030047 11.786615 9.657027 0.979751 -14.661858 0.023217 -0.032302 11.716001 0.000036 -0.000036 0.000049 0.039087 0.011722 11.754804 -0.000021 0.000002 0.000027 0.050166 0.014757 11.743108 -1.183948 1.948886 -0.617107 -0.004525 -0.052597 11.750651 0.000056 -0.000026 11.750658 
0.000000 0.000000 0.000000 0.000008 0.000000 -0.000000 -0.000000 0.000000 -0.000000 -0.030585 -1.999750 -0.876418 0.000001 0.000002 -0.000002 -2.968464 2.086773 37.917020 0.142981 -0.904828 22.682619 0.302686 -0.879152 17.655995 -0.164205 -1.485105 7.604146 0.021557 -1.549719 -0.288520 0.191215 1.111593 5.959438 -0.449511 10.056804 1.083632 1.005278 0.010332 -5.094347 1.678832 -0.032794 -8.513419 -0.274972 -9.318482 7.706194 -0.000085 -0.000042 0.000141 -0.005326 0.004383 -0.000048 -0.840384 -8.707083 -5.711070 -0.172621 -0.008140 -0.875354 -2.538877 0.147108 -12.907785 0.167176 9.788817 14.571744 -0.000068 0.000032 -0.000008 0.008765 -0.000458 0.038596 0.030808 0.600216 -3.264818 0.917523 -0.020778 6.784391 0.871957 -0.170811 -0.000047 0.048127 0.969284 -4.166314 0.000078 -0.000112 -0.000056 -0.000052 -0.014928 0.015042 2.250313 0.435418 -0.764588 0.870509 0.070506 -0.250336 3.256690 0.453986 -0.969347 1.570466 -0.655535 -3.937800 -0.164051 0.997187 4.895690 -4.831968 -4.669274 8.486980 0.017408 0.219503 -5.370682 7.200205 2.616629 1.927249 -4.306971 4.318162 -2.306024 0.000116 0.000499 -0.000043 -0.781906 0.140345 -0.478790 -0.804181 0.123492 -0.482651 -3.700580 0.080789 4.847528 5.363283 -0.091084 7.083644 -0.009530 -0.148431 -3.627120 -7.204704 2.223177 1.070182 2.568088 -5.572010 -1.497996 -0.000071 -0.000191 -0.000038 0.028307 0.072122 2.451926 -0.000916 0.100590 2.451938 3.523865 0.386663 -0.625341 -0.596424 -0.070978 0.126401 -1.019176 -0.159548 0.144506 -2.174493 1.244602 -5.164342 5.743961 0.562970 -0.137287 0.031726 -0.007081 0.039616 -1.927078 -0.212903 0.325273 -1.104944 -1.146291 -4.430546 -0.000001 0.000302 29.941094 -0.091788 -0.099938 -71.081458 -0.000042 -0.000051 -22.137791 0.000020 -0.000008 -0.026807 0.000021 0.000058 0.012716 -0.000103 -0.000108 -34.853332 0.000025 -0.000010 0.015166 0.000022 -0.000019 0.012721 -0.000054 -0.000083 -24.363275 0.000033 0.000035 -0.000048 2.204348 2.627194 2.061257 0.585113 -0.069789 1.150874 -12.812596 -1.803909 -16.138892 0.024216 -0.030041 11.786629 9.657029 0.979743 -14.661860 0.023231 -0.032298 11.715977 0.000036 -0.000037 0.000051 0.039102 0.011744 11.754814 -0.000019 0.000000 0.000015 0.050182 0.014781 11.743090 -1.167817 1.936441 -0.740497 -0.004508 -0.052618 11.750651 0.000056 -0.000026 11.750656 
0.000000 0.000000 0.000000 0.000008 0.000000 -0.000000 -0.000000 0.000000 -0.000000 -0.030585 -1.999750 -0.876418 0.000001 0.000002 -0.000002 -3.003787 2.109316 37.966768 0.141418 -0.853135 22.689485 0.277307 -0.837160 17.649465 -0.164241 -1.483928 7.576828 0.020170 -1.503780 -0.329335 0.191215 1.110637 5.963842 -0.460532 10.006332 1.102165 1.015271 0.009992 -5.144853 1.672669 -0.032216 -8.482062 -0.279488 -9.266503 7.705210 -0.000085 -0.000041 0.000141 -0.005326 0.004382 -0.000048 -0.815472 -8.656361 -5.683372 -0.184416 -0.008594 -0.935194 -2.534835 0.146415 -12.887025 0.166624 9.736436 14.578414 -0.000068 0.000034 -0.000008 0.008765 -0.000456 0.038596 0.030549 0.599070 -3.264816 0.917523 -0.020778 6.784391 0.743105 -0.173736 0.002887 0.048127 0.969284 -4.178836 0.000078 -0.000112 -0.000056 -0.000052 -0.014928 0.015042 2.309261 0.444047 -0.783423 0.864805 0.071746 -0.249913 3.228014 0.450316 -0.960672 1.571451 -0.663111 -3.938356 -0.156060 1.007683 4.902759 -4.827319 -4.669303 8.439982 0.016963 0.215982 -5.284103 7.198199 2.631129 1.883742 -4.306970 4.318162 -2.306024 0.000130 0.000568 -0.000036 -0.781934 0.140346 -0.478791 -0.804181 0.123493 -0.482651 -3.694515 0.092000 4.849084 5.369622 -0.090484 7.035018 -0.009226 -0.145233 -3.548816 -7.207285 2.226672 1.032528 2.568089 -5.572011 -1.497996 -0.000039 -0.000170 -0.000022 0.028360 0.072123 2.451925 -0.000916 0.100591 2.451938 3.568948 0.391029 -0.633107 -0.602470 -0.071466 0.127180 -1.020755 -0.160061 0.145619 -2.177820 1.247225 -5.166970 5.835383 0.571326 -0.139804 0.031164 -0.002085 0.034637 -1.945411 -0.213202 0.301172 -1.094324 -1.113990 -4.395938 -0.000001 0.000301 29.759346 -0.099198 -0.109288 -70.893272 -0.000042 -0.000051 -22.152600 0.000020 -0.000008 -0.026805 0.000021 0.000058 0.012716 -0.000103 -0.000108 -34.877729 0.000026 -0.000010 0.015165 0.000022 -0.000019 0.012720 -0.000054 -0.000082 -24.379530 0.000033 0.000035 -0.000046 2.301375 2.595579 2.029108 0.642921 -0.093559 1.285362 -12.812595 -1.803904 -16.138883 0.024233 -0.030035 11.786661 9.657026 0.979747 -14.661857 0.023243 -0.032298 11.715953 0.000037 -0.000036 0.000052 0.039112 0.011768 11.754815 -0.000020 0.000000 0.000023 0.050192 0.014804 11.743094 -1.143627 1.907384 -0.845242 -0.004489 -0.052639 11.750645 0.000056 -0.000026 11.750657 
0.000000 0.000000 0.000000 0.000008 0.000000 -0.000000 -0.000000 0.000000 -0.000000 -0.030585 -1.999750 -0.876418 0.000001 0.000002 -0.000002 -3.029836 2.124596 38.015443 0.139841 -0.800934 22.696382 0.274067 -0.769017 17.648282 -0.164973 -1.459615 7.554661 0.020588 -1.517626 -0.364662 0.191215 1.108916 5.965132 -0.472660 9.955614 1.123179 1.025326 0.009631 -5.195888 1.666782 -0.031678 -8.452050 -0.283519 -9.213447 7.704324 -0.000085 -0.000042 0.000141 -0.005326 0.004382 -0.000048 -0.790342 -8.605104 -5.655407 -0.195228 -0.009009 -0.989973 -2.530752 0.145713 -12.866046 0.166064 9.683539 14.585160 -0.000068 0.000034 -0.000008 0.008765 -0.000456 0.038596 0.031139 0.601682 -3.264819 0.917523 -0.020778 6.784392 0.612974 -0.176663 0.005884 0.048127 0.969284 -4.187123 0.000078 -0.000112 -0.000055 -0.000052 -0.014927 0.015042 2.368809 0.452734 -0.802497 0.859043 0.073007 -0.249489 3.199057 0.446602 -0.951905 1.572615 -0.672064 -3.943946 -0.148486 1.019240 4.913503 -4.822568 -4.669117 8.392492 0.016519 0.212423 -5.196646 7.196221 2.645777 1.839806 -4.306971 4.318162 -2.306025 -0.000110 0.000359 -0.000077 -0.781988 0.140346 -0.478795 -0.804181 0.123492 -0.482650 -3.687886 0.104196 4.850785 5.375959 -0.089781 6.985852 -0.008922 -0.142003 -3.469717 -7.209868 2.230188 0.994506 2.568088 -5.572012 -1.497996 -0.000079 -0.000347 -0.000035 0.028470 0.072124 2.451926 -0.000916 0.100591 2.451938 3.614448 0.395441 -0.640934 -0.608569 -0.071965 0.127970 -1.022336 -0.160583 0.146763 -2.181146 1.249846 -5.169634 5.927719 0.579754 -0.142369 0.030605 0.002990 0.029579 -1.963922 -0.213486 0.276803 -1.082646 -1.082265 -4.367022 -0.000001 0.000301 29.598847 -0.107470 -0.117460 -70.719902 -0.000041 -0.000051 -22.167608 0.000020 -0.000008 -0.026807 0.000021 0.000057 0.012720 -0.000103 -0.000108 -34.902396 0.000025 -0.000010 0.015165 0.000022 -0.000020 0.012718 -0.000055 -0.000082 -24.395955 0.000033 0.000035 -0.000046 2.399337 2.563595 1.996695 0.701319 -0.117426 1.421196 -12.812593 -1.803899 -16.138890 0.024264 -0.030027 11.786702 9.657026 0.979749 -14.661862 0.023278 -0.032292 11.715911 0.000036 -0.000036 0.000049 0.039138 0.011816 11.754818 -0.000020 0.000000 0.000019 0.050216 0.014851 11.743077 -1.119256 1.877984 -0.951037 -0.004455 -0.052680 11.750647 0.000056 -0.000026 11.750660 
